<svg width="28" height="29" viewBox="0 0 28 29" fill="none" xmlns="http://www.w3.org/2000/svg">
<g clip-path="url(#clip0_7232_57750)">
<rect width="28" height="28" transform="translate(0 0.121582)" fill="white" fill-opacity="0.01" style="mix-blend-mode:multiply"/>
<path d="M27.125 14.1216C27.1256 13.8917 27.0807 13.6639 26.9927 13.4515C26.9047 13.2391 26.7754 13.0463 26.6123 12.8842L21.5434 7.81544L24.0529 5.3062C24.425 5.40595 24.8196 5.38012 25.1755 5.23272C25.5315 5.08533 25.8288 4.8246 26.0214 4.49098C26.2141 4.15736 26.2913 3.7695 26.241 3.38755C26.1907 3.0056 26.0158 2.6509 25.7434 2.37848C25.471 2.10607 25.1164 1.93115 24.7344 1.88085C24.3525 1.83056 23.9646 1.90771 23.631 2.10033C23.2973 2.29295 23.0366 2.59028 22.8892 2.94621C22.7417 3.30213 22.7159 3.69675 22.8156 4.06886L20.3061 6.5781L15.2373 1.50923C15.0749 1.3467 14.882 1.21778 14.6696 1.12982C14.4573 1.04186 14.2298 0.996582 14 0.996582C13.7702 0.996582 13.5426 1.04186 13.3303 1.12982C13.118 1.21778 12.9251 1.3467 12.7626 1.50923L7.69386 6.5781L5.18436 4.06886C5.28408 3.69675 5.25822 3.30213 5.1108 2.94621C4.96338 2.59028 4.70263 2.29295 4.369 2.10033C4.03537 1.90771 3.6475 1.83056 3.26555 1.88085C2.8836 1.93115 2.52892 2.10607 2.25652 2.37848C1.98412 2.6509 1.80923 3.0056 1.75896 3.38755C1.7087 3.7695 1.78587 4.15736 1.97852 4.49098C2.17116 4.8246 2.46851 5.08533 2.82444 5.23272C3.18038 5.38012 3.575 5.40595 3.94711 5.3062L6.45652 7.81544L1.38764 12.8842C1.22512 13.0467 1.0962 13.2396 1.00823 13.4519C0.920273 13.6642 0.875 13.8918 0.875 14.1216C0.875 14.3514 0.920273 14.5789 1.00823 14.7912C1.0962 15.0035 1.22512 15.1964 1.38764 15.3589L6.45652 20.4277L3.94711 22.9369C3.575 22.8372 3.18038 22.863 2.82444 23.0104C2.46851 23.1578 2.17116 23.4185 1.97852 23.7521C1.78587 24.0858 1.7087 24.4736 1.75896 24.8556C1.80923 25.2375 1.98412 25.5922 2.25652 25.8646C2.52892 26.1371 2.8836 26.312 3.26555 26.3623C3.6475 26.4126 4.03537 26.3354 4.369 26.1428C4.70263 25.9502 4.96338 25.6528 5.1108 25.2969C5.25822 24.941 5.28408 24.5464 5.18436 24.1743L7.69386 21.665L12.7626 26.7339C12.9251 26.8964 13.118 27.0254 13.3303 27.1133C13.5426 27.2013 13.7702 27.2466 14 27.2466C14.2298 27.2466 14.4573 27.2013 14.6696 27.1133C14.882 27.0254 15.0749 26.8964 15.2373 26.7339L20.3061 21.665L22.8156 24.1743C22.7159 24.5464 22.7417 24.941 22.8892 25.2969C23.0366 25.6528 23.2973 25.9502 23.631 26.1428C23.9646 26.3354 24.3525 26.4126 24.7344 26.3623C25.1164 26.312 25.471 26.1371 25.7434 25.8646C26.0158 25.5922 26.1907 25.2375 26.241 24.8556C26.2913 24.4736 26.2141 24.0858 26.0214 23.7521C25.8288 23.4185 25.5315 23.1578 25.1755 23.0104C24.8196 22.863 24.425 22.8372 24.0529 22.9369L21.5434 20.4277L26.6123 15.3589C26.7754 15.1968 26.9046 15.004 26.9926 14.7916C27.0806 14.5792 27.1256 14.3515 27.125 14.1216V14.1216ZM20.3061 19.1904L17.8623 16.7466L16.625 17.9839L19.0689 20.4277L14 25.4966L8.93111 20.4277L11.375 17.9839L10.1376 16.7466L7.69386 19.1904L2.62498 14.1216L7.69342 9.05225L10.1376 11.4966L11.375 10.2592L8.93067 7.815L14 2.74656L19.0693 7.815L16.625 10.2592L17.8623 11.4966L20.3065 9.05225L25.375 14.1216L20.3061 19.1904Z" fill="#6F6F6F"/>
</g>
<defs>
<clipPath id="clip0_7232_57750">
<rect width="28" height="28" fill="white" transform="translate(0 0.121582)"/>
</clipPath>
</defs>
</svg>
