<svg width="28" height="29" viewBox="0 0 28 29" fill="none" xmlns="http://www.w3.org/2000/svg">
<g clip-path="url(#clip0_6160_52591)">
<g style="mix-blend-mode:multiply">
<path d="M28 0.75H0V28.75H28V0.75Z" fill="white" fill-opacity="0.01"/>
</g>
<path d="M14.5358 2.68703C14.3804 2.56583 14.1891 2.5 13.9921 2.5C13.7951 2.5 13.6037 2.56583 13.4484 2.68703L0.875 12.4919L1.96236 13.8672L3.5 12.6682V23.4999C3.50095 23.9638 3.68563 24.4084 4.01361 24.7363C4.34159 25.0643 4.78616 25.249 5.25 25.2499H22.75C23.2139 25.2491 23.6585 25.0644 23.9865 24.7364C24.3145 24.4084 24.4991 23.9638 24.5 23.4999V12.6762L26.0376 13.8749L27.125 12.4996L14.5358 2.68703ZM15.75 23.4999H12.25V16.4999H15.75V23.4999ZM17.5 23.4999V16.4999C17.4995 16.036 17.3149 15.5912 16.9868 15.2631C16.6588 14.935 16.214 14.7505 15.75 14.7499H12.25C11.786 14.7504 11.3412 14.9349 11.0131 15.263C10.685 15.5911 10.5005 16.036 10.5 16.4999V23.4999H5.25V11.3038L14 4.48751L22.75 11.3129V23.4999H17.5Z" fill="#6F6F6F"/>
</g>
<defs>
<clipPath id="clip0_6160_52591">
<rect width="28" height="29" fill="white"/>
</clipPath>
</defs>
</svg>
