<svg width="29" height="29" viewBox="0 0 29 29" fill="none" xmlns="http://www.w3.org/2000/svg">
<rect width="28" height="28" transform="translate(0.523438 0.655273)" fill="white" fill-opacity="0.01" style="mix-blend-mode:multiply"/>
<path d="M19.7734 5.90527H9.27344V7.65527H19.7734V5.90527Z" fill="#B2ED1D"/>
<path d="M19.7734 9.40527H9.27344V11.1553H19.7734V9.40527Z" fill="#B2ED1D"/>
<path d="M14.5234 21.6553H9.27344V23.4053H14.5234V21.6553Z" fill="#B2ED1D"/>
<path d="M14.5234 12.9053H9.27344V14.6553H14.5234V12.9053Z" fill="#B2ED1D"/>
<path d="M21.5234 26.9053H7.52344C7.05947 26.9047 6.61466 26.7202 6.28659 26.3921C5.95852 26.064 5.77397 25.6192 5.77344 25.1553V4.15527C5.77397 3.69131 5.95852 3.2465 6.28659 2.91842C6.61466 2.59035 7.05947 2.40581 7.52344 2.40527H21.5234C21.9874 2.40581 22.4322 2.59035 22.7603 2.91842C23.0884 3.2465 23.2729 3.69131 23.2734 4.15527V25.1553C23.2729 25.6192 23.0884 26.064 22.7603 26.3921C22.4322 26.7202 21.9874 26.9047 21.5234 26.9053ZM7.52344 4.15527V25.1553H21.5234V4.15527H7.52344Z" fill="#B2ED1D"/>
</svg>
