<svg width="29" height="29" viewBox="0 0 29 29" fill="none" xmlns="http://www.w3.org/2000/svg">
<rect x="0.523438" y="0.655273" width="28" height="28" rx="3" fill="white" fill-opacity="0.01" style="mix-blend-mode:multiply"/>
<path d="M14.5234 2.40527C12.1006 2.40527 9.73221 3.12372 7.71771 4.46977C5.70321 5.81582 4.13309 7.72901 3.20592 9.9674C2.27875 12.2058 2.03615 14.6689 2.50882 17.0451C2.98149 19.4214 4.14819 21.6041 5.86138 23.3173C7.57458 25.0305 9.75732 26.1972 12.1336 26.6699C14.5099 27.1426 16.9729 26.9 19.2113 25.9728C21.4497 25.0456 23.3629 23.4755 24.7089 21.461C26.055 19.4465 26.7734 17.0781 26.7734 14.6553C26.7734 11.4064 25.4828 8.29054 23.1855 5.99322C20.8882 3.69589 17.7723 2.40527 14.5234 2.40527V2.40527ZM25.0234 13.7803H19.7734C19.6713 10.5577 18.8364 7.40078 17.3322 4.54902C19.4047 5.11593 21.2534 6.30501 22.6287 7.95577C24.0041 9.60652 24.84 11.6395 25.0234 13.7803V13.7803ZM14.5234 25.1553C14.3282 25.1684 14.1324 25.1684 13.9372 25.1553C12.1244 22.2644 11.1184 18.9411 11.0234 15.5303H18.0234C17.9364 18.9387 16.9395 22.2618 15.1359 25.1553C14.932 25.1696 14.7274 25.1696 14.5234 25.1553ZM11.0234 13.7803C11.1105 10.3719 12.1074 7.04874 13.9109 4.15527C14.3006 4.11149 14.6938 4.11149 15.0834 4.15527C16.9054 7.04347 17.9206 10.367 18.0234 13.7803H11.0234ZM11.6884 4.54902C10.1933 7.40296 9.36746 10.5598 9.27344 13.7803H4.02344C4.20693 11.6395 5.04277 9.60652 6.41814 7.95577C7.7935 6.30501 9.6422 5.11593 11.7147 4.54902H11.6884ZM4.06719 15.5303H9.31719C9.40851 18.7501 10.2314 21.9069 11.7234 24.7615C9.65745 24.1885 7.81637 22.9968 6.44768 21.3465C5.07898 19.6963 4.24827 17.6666 4.06719 15.5303V15.5303ZM17.3322 24.7615C18.8364 21.9098 19.6713 18.7528 19.7734 15.5303H25.0234C24.84 17.6711 24.0041 19.704 22.6287 21.3548C21.2534 23.0055 19.4047 24.1946 17.3322 24.7615Z" fill="#B2ED1D"/>
</svg>
