<svg width="29" height="29" viewBox="0 0 29 29" fill="none" xmlns="http://www.w3.org/2000/svg">
<rect x="0.523438" y="0.655273" width="28" height="28" rx="3" fill="white" fill-opacity="0.01" style="mix-blend-mode:multiply"/>
<path d="M23.2734 5.90527V2.40527H2.27344V11.1553H10.1484V26.9053H26.7734V5.90527H23.2734ZM4.02344 9.40527V4.15527H21.5234V5.90527H10.1484V9.40527H4.02344ZM25.0234 25.1553H11.8984V7.65527H25.0234V25.1553Z" fill="#B2ED1D"/>
<path d="M15.3984 10.2803H13.6484V12.0303H15.3984V10.2803Z" fill="#B2ED1D"/>
<path d="M23.2734 10.2803H17.1484V12.0303H23.2734V10.2803Z" fill="#B2ED1D"/>
<path d="M15.3984 15.5303H13.6484V17.2803H15.3984V15.5303Z" fill="#B2ED1D"/>
<path d="M23.2734 15.5303H17.1484V17.2803H23.2734V15.5303Z" fill="#B2ED1D"/>
<path d="M15.3984 20.7803H13.6484V22.5303H15.3984V20.7803Z" fill="#B2ED1D"/>
<path d="M23.2734 20.7803H17.1484V22.5303H23.2734V20.7803Z" fill="#B2ED1D"/>
</svg>
