<svg width="29" height="28" viewBox="0 0 29 28" fill="none" xmlns="http://www.w3.org/2000/svg">
<g clip-path="url(#clip0_7691_64439)">
<rect width="28" height="28" transform="translate(0.0136719)" fill="white" fill-opacity="0.01" style="mix-blend-mode:multiply"/>
<path d="M28.0137 9.625H25.3887V4.375C25.3887 3.4125 24.6012 2.625 23.6387 2.625H11.3887C10.4262 2.625 9.63867 3.4125 9.63867 4.375V7.875H11.3887V4.375H23.6387V16.625H11.3887V13.125H9.63867V16.625C9.63867 17.5875 10.4262 18.375 11.3887 18.375H23.6387C24.6012 18.375 25.3887 17.5875 25.3887 16.625V11.375H28.0137V9.625Z" fill="#B2ED1D"/>
<path d="M18.3887 14.875V11.375C18.3887 10.4125 17.6012 9.625 16.6387 9.625H4.38867C3.42617 9.625 2.63867 10.4125 2.63867 11.375V16.625H0.0136719V18.375H2.63867V23.625C2.63867 24.5875 3.42617 25.375 4.38867 25.375H16.6387C17.6012 25.375 18.3887 24.5875 18.3887 23.625V20.125H16.6387V23.625H4.38867V11.375H16.6387V14.875H18.3887Z" fill="#B2ED1D"/>
</g>
<defs>
<clipPath id="clip0_7691_64439">
<rect width="28" height="28" fill="white" transform="translate(0.0136719)"/>
</clipPath>
</defs>
</svg>
