<svg width="29" height="29" viewBox="0 0 29 29" fill="none" xmlns="http://www.w3.org/2000/svg">
<g clip-path="url(#clip0_9674_78891)">
<rect width="28" height="28" transform="translate(0.523438 0.655273)" fill="white" fill-opacity="0.01" style="mix-blend-mode:multiply"/>
<path d="M26.7741 16.4052H25.0241V25.1552H26.7741V16.4052Z" fill="#B2ED1D"/>
<path d="M23.2741 12.9052H21.5241V25.1552H23.2741V12.9052Z" fill="#B2ED1D"/>
<path d="M19.7741 19.9052H18.0241V25.1552H19.7741V19.9052Z" fill="#B2ED1D"/>
<path d="M19.9272 9.40524L21.3141 8.29741C20.0245 6.68525 18.2042 5.58365 16.1778 5.18914C15.0486 4.97101 13.8875 4.97757 12.7608 5.20845C11.6341 5.43933 10.564 5.89 9.61158 6.53471C8.65918 7.17941 7.84319 8.00551 7.21024 8.96577C6.5773 9.92602 6.13982 11.0016 5.92282 12.131C4.27318 12.4292 2.8 13.3468 1.8051 14.696C0.810204 16.0452 0.368921 17.7238 0.571665 19.3879C0.803922 21.0053 1.61723 22.4828 2.85957 23.5442C4.10191 24.6056 5.68826 25.1783 7.32211 25.1552H14.5241V23.4052H7.25675C6.11072 23.4232 4.99428 23.041 4.09958 22.3246C3.20487 21.6082 2.58786 20.6024 2.35474 19.4802C2.238 18.8558 2.24588 18.2145 2.37792 17.5931C2.50997 16.9718 2.76357 16.3827 3.12414 15.8597C3.48472 15.3368 3.94514 14.8903 4.47892 14.5459C5.0127 14.2016 5.6093 13.9662 6.2344 13.8533L7.41443 13.6397L7.60159 12.6685C7.8644 11.209 8.57265 9.86674 9.62904 8.82601C10.6854 7.78529 12.0381 7.09717 13.5014 6.85619C14.3796 6.72583 15.2746 6.76444 16.1384 6.96994C17.6404 7.32983 18.976 8.18832 19.9272 9.40524Z" fill="#B2ED1D"/>
</g>
<defs>
<clipPath id="clip0_9674_78891">
<rect width="28" height="28" fill="white" transform="translate(0.523438 0.655273)"/>
</clipPath>
</defs>
</svg>
