<svg width="29" height="29" viewBox="0 0 29 29" fill="none" xmlns="http://www.w3.org/2000/svg">
<rect width="28" height="28" transform="translate(0.523438 0.655273)" fill="white" fill-opacity="0.01" style="mix-blend-mode:multiply"/>
<path d="M7.52344 26.9053H2.27344V21.6553H7.52344V26.9053ZM4.02344 25.1553H5.77344V23.4053H4.02344V25.1553Z" fill="#B2ED1D"/>
<path d="M17.1484 26.9053H11.8984V21.6553H17.1484V26.9053ZM13.6484 25.1553H15.3984V23.4053H13.6484V25.1553Z" fill="#B2ED1D"/>
<path d="M26.7734 26.9053H21.5234V21.6553H26.7734V26.9053ZM23.2734 25.1553H25.0234V23.4053H23.2734V25.1553Z" fill="#B2ED1D"/>
<path d="M14.5234 9.40527C13.8312 9.40527 13.1545 9.2 12.5789 8.81542C12.0034 8.43083 11.5548 7.88421 11.2899 7.24467C11.025 6.60513 10.9556 5.90139 11.0907 5.22246C11.2257 4.54353 11.5591 3.91988 12.0486 3.4304C12.538 2.94092 13.1617 2.60757 13.8406 2.47253C14.5196 2.33748 15.2233 2.40679 15.8628 2.6717C16.5024 2.9366 17.049 3.38521 17.4336 3.96078C17.8182 4.53635 18.0234 5.21304 18.0234 5.90527C18.0224 6.83321 17.6533 7.72285 16.9972 8.379C16.341 9.03515 15.4514 9.40423 14.5234 9.40527ZM14.5234 4.15527C14.1773 4.15527 13.839 4.25791 13.5512 4.4502C13.2634 4.6425 13.0391 4.91581 12.9066 5.23558C12.7742 5.55535 12.7395 5.90722 12.8071 6.24668C12.8746 6.58615 13.0413 6.89797 13.286 7.14271C13.5307 7.38745 13.8426 7.55413 14.182 7.62165C14.5215 7.68917 14.8734 7.65452 15.1931 7.52206C15.5129 7.38961 15.7862 7.16531 15.9785 6.87752C16.1708 6.58974 16.2734 6.25139 16.2734 5.90527C16.273 5.44129 16.0885 4.99644 15.7604 4.66835C15.4323 4.34026 14.9874 4.15574 14.5234 4.15527Z" fill="#B2ED1D"/>
<path d="M23.2734 14.6553H18.8984C17.9705 14.6542 17.0809 14.2851 16.4247 13.629C15.7686 12.9728 15.3995 12.0832 15.3984 11.1553H13.6484C13.6474 12.0832 13.2783 12.9728 12.6222 13.629C11.966 14.2851 11.0764 14.6542 10.1484 14.6553H5.77344C5.30947 14.6558 4.86466 14.8404 4.53659 15.1684C4.20852 15.4965 4.02397 15.9413 4.02344 16.4053V19.9053H5.77344V16.4053H10.1484C11.4417 16.4049 12.6888 15.9247 13.6484 15.0578V19.9053H15.3984V15.0578C16.3581 15.9247 17.6052 16.4049 18.8984 16.4053H23.2734V19.9053H25.0234V16.4053C25.0229 15.9413 24.8384 15.4965 24.5103 15.1684C24.1822 14.8404 23.7374 14.6558 23.2734 14.6553Z" fill="#B2ED1D"/>
</svg>
