<svg width="29" height="28" viewBox="0 0 29 28" fill="none" xmlns="http://www.w3.org/2000/svg">
<rect width="28" height="28" transform="translate(0.20166)" fill="white" fill-opacity="0.01" style="mix-blend-mode:multiply"/>
<path d="M15.7242 26.25L14.2017 25.375L17.7017 19.25H22.9517C23.4158 19.25 23.8609 19.0656 24.1891 18.7374C24.5173 18.4092 24.7017 17.9641 24.7017 17.5V7C24.7017 6.53587 24.5173 6.09075 24.1891 5.76256C23.8609 5.43437 23.4158 5.25 22.9517 5.25H5.45166C4.98753 5.25 4.54241 5.43437 4.21422 5.76256C3.88603 6.09075 3.70166 6.53587 3.70166 7V17.5C3.70166 17.9641 3.88603 18.4092 4.21422 18.7374C4.54241 19.0656 4.98753 19.25 5.45166 19.25H13.3267V21H5.45166C4.5234 21 3.63316 20.6312 2.97679 19.9749C2.32041 19.3185 1.95166 18.4283 1.95166 17.5V7C1.95166 6.07174 2.32041 5.1815 2.97679 4.52513C3.63316 3.86875 4.5234 3.5 5.45166 3.5H22.9517C23.8799 3.5 24.7702 3.86875 25.4265 4.52513C26.0829 5.1815 26.4517 6.07174 26.4517 7V17.5C26.4517 18.4283 26.0829 19.3185 25.4265 19.9749C24.7702 20.6312 23.8799 21 22.9517 21H18.7167L15.7242 26.25Z" fill="#B2ED1D"/>
<path d="M21.2017 8.75H7.20166V10.5H21.2017V8.75Z" fill="#B2ED1D"/>
<path d="M15.9517 14H7.20166V15.75H15.9517V14Z" fill="#B2ED1D"/>
</svg>
